<svg xmlns:dc="http://purl.org/dc/elements/1.1/" xmlns:cc="http://creativecommons.org/ns#" xmlns:rdf="http://www.w3.org/1999/02/22-rdf-syntax-ns#" xmlns:svg="http://www.w3.org/2000/svg" xmlns="http://www.w3.org/2000/svg" version="1.1" x="0px" y="0px" viewBox="0 0 100.00094 100"><g transform="translate(-491.16135,-1016.2287)"><g transform="matrix(0.12961585,0,0,0.12961585,438.86627,967.19584)" style="" fill="#000000" fill-opacity="1" fill-rule="evenodd"><path d="m 785.33216,782.55076 c -5.04574,0.59666 -24.94759,-27.10677 -20.81191,-108.44742 9.1038,-22.93858 19.26357,-24.67786 30.78459,-23.92562 18.24561,2.35434 24.05256,13.06855 28.53743,22.49177 3.73663,45.6342 1.23468,51.90507 -1.73308,86.2108 -4.84899,14.24504 -9.55414,33.40838 -36.77703,23.67047 z m 3.43177,-365.6815 c 15.56675,70.01853 40.8773,157.88569 38.6652,156.77966 74.15099,9.55859 99.22966,16.38063 123.67585,26.21822 0.13028,4.52639 -44.51334,11.88857 -72.96044,16.18807 -14.91395,2.2541 -7.2935,2.17241 -44.88907,11.3543 7.31659,15.23982 6.43705,30.86653 -2.64836,37.87077 l -0.35284,3.84097 c 10.63231,-0.37796 32.90032,-0.48021 37.42916,0.66114 4.3806,2.01927 8.96142,5.20667 15.36012,6.09111 94.62189,15.49277 95.05862,12.55503 137.18225,-23.30508 -12.2037,63.10186 -20.78272,144.31169 -0.5296,157.839 -39.72111,-4.2069 -102.05697,-45.99458 -117.05517,-49.78818 -11.16005,-3.03855 -23.33077,-4.08639 -29.66102,0.52966 -8.12469,7.26097 -7.11601,16.23405 -5.56143,26.21829 7.4423,22.0902 47.4705,214.96641 73.0932,309.05731 -104.7267,-2.07 -201.44805,-0.8535 -302.17155,-1.589 54.7278,-147.45543 111.0199,-315.49506 84.2161,-331.03826 -4.0268,-2.5949 -7.4053,-4.0424 -33.3687,1.589 -32.4567,11.1917 -27.9377,33.308 -115.9957,28.072 4.4419,-30.0178 13.3799,-106.69383 -4.23736,-118.90889 41.60894,-8.29892 44.21293,3.40103 58.26276,7.15042 54.4076,18.38615 74.4215,9.54417 92.6907,-2.64831 8.5783,-7.37442 21.5749,-12.65383 39.7245,-10.06356 -16.2364,-17.64834 -12.5077,-30.77536 -7.4152,-40.7839 -89.93479,-1.73084 -116.5823,-12.43813 -119.70343,-19.59745 -6.24104,-10.56118 71.05129,-20.75133 115.99573,-37.07627 19.98104,-77.90983 28.6964,-106.40299 40.2543,-154.66102 z" style="" fill="#000000" fill-opacity="1" fill-rule="evenodd" stroke="none"></path><path d="m 769.65277,671.17857 -0.0691,-2.2991 c 8.7993,-1.42496 16.2244,-1.96778 23.28976,-9.68576 5.4992,6.47278 12.62333,7.82305 22.18819,8.03714 l -0.0911,2.82413 c -11.94717,1.00669 -18.49714,0.37734 -21.34803,8.2396 -3.76512,-7.63753 -15.66987,-5.82712 -23.96973,-7.11601 z" style="" fill="#000000" fill-opacity="1" fill-rule="evenodd" stroke="none"></path><path d="m 1019.4622,668.18235 17.2283,-10.48675 c 0.6725,-6.53316 -0.082,-17.69237 10.0186,-17.22824 l -0.021,-1.82565 c -12.2106,-2.2516 -10.9214,-6.28495 -14.9598,-9.87832 l 13.6703,-0.37452 c -2.2446,-71.25168 -6.8982,-199.01981 -1.2172,-200.65279 11.2226,30.61711 14.8906,132.23193 17.79,199.99737 l 12.1721,0.2809 c -3.6441,3.1997 -3.1252,5.53298 -13.7638,9.64406 l 0.05,1.81875 c 2.3578,0.54242 4.8822,-0.50296 5.4743,2.48831 1.9387,30.91127 -6.0199,41.67123 -25.2806,33.98831 l -27.1532,31.17937 z" style="" fill="#000000" fill-opacity="1" fill-rule="evenodd" stroke="none"></path><path d="m 1045.5854,679.88632 -0.094,-0.2809 c 7.0123,3.64754 10.9779,0.92468 15.3556,-0.93632 l 0,0.0936 c -6.0952,34.90939 -15.5789,4.96916 -15.262,1.12358 z" style="" fill="#000000" fill-opacity="1" fill-rule="evenodd" stroke="none"></path><path d="m 575.64784,698.51903 -4.86885,-19.10087 c -11.52299,0.10807 -14.94888,-4.03396 -24.71877,-11.23581 -11.35739,-46.19816 -14.64711,-69.58088 -20.59898,-102.62037 1.62419,-7.10246 10.18231,-15.41295 -8.23959,-52.80829 -9.09283,-1.52097 2.51429,8.84683 4.49432,41.94701 l -4.49432,4.49432 c -5.49306,3.63024 -6.86633,-36.24247 -11.98486,-37.07816 -1.53858,12.94035 -3.47074,30.74523 11.98486,43.81965 l 22.09708,102.9949 c -15.27233,9.68815 -1.31884,31.80582 5.99243,44.5687 19.17222,124.61046 33.95711,240.44626 50.93566,360.66939 l 8.61412,-0.749 C 588.5066,952.19861 573.32427,832.14874 555.79792,709.75484 c 6.87544,-6.74149 9.49088,-7.49054 19.84992,-11.23581 z" style="" fill="#000000" fill-opacity="1" fill-rule="evenodd" stroke="none"></path><path d="m 718.2846,1097.6771 47.07557,-0.2195 7.41526,13.2416 -62.96541,0.2194 z" style="" fill="#000000" fill-opacity="1" fill-rule="evenodd" stroke="none"></path><path d="m 817.26695,1097.9873 46.61017,0 9.00424,13.2415 -63.02966,-0.5296 z" style="" fill="#000000" fill-opacity="1" fill-rule="evenodd" stroke="none"></path></g></g></svg>